<?xml version="1.0" encoding="UTF-8" standalone="no"?>
<!DOCTYPE svg PUBLIC "-//W3C//DTD SVG 1.1//EN"
 "http://www.w3.org/Graphics/SVG/1.1/DTD/svg11.dtd">
<!-- Generated by graphviz version 2.43.0 (0)
 -->
<!-- Title: %3 Pages: 1 -->
<svg width="626pt" height="260pt"
 viewBox="0.00 0.00 626.09 260.00" xmlns="http://www.w3.org/2000/svg" xmlns:xlink="http://www.w3.org/1999/xlink">
<g id="graph0" class="graph" transform="scale(1 1) rotate(0) translate(4 256)">
<title>%3</title>
<polygon fill="white" stroke="transparent" points="-4,4 -4,-256 622.09,-256 622.09,4 -4,4"/>
<!-- /Compute/ALB -->
<g id="node1" class="node">
<title>/Compute/ALB</title>
<ellipse fill="none" stroke="black" cx="167.55" cy="-162" rx="77.19" ry="18"/>
<text text-anchor="middle" x="167.55" y="-158.3" font-family="Times,serif" font-size="14.00">/Compute/ALB</text>
</g>
<!-- /Network/VPC -->
<g id="node2" class="node">
<title>/Network/VPC</title>
<ellipse fill="none" stroke="black" cx="167.55" cy="-18" rx="76.09" ry="18"/>
<text text-anchor="middle" x="167.55" y="-14.3" font-family="Times,serif" font-size="14.00">/Network/VPC</text>
</g>
<!-- /Compute/ALB&#45;&gt;/Network/VPC -->
<g id="edge1" class="edge">
<title>/Compute/ALB&#45;&gt;/Network/VPC</title>
<path fill="none" stroke="black" d="M106.74,-150.76C49.7,-138.37 -22.65,-113.81 7.55,-72 25.71,-46.85 56.27,-33.44 85.84,-26.36"/>
<polygon fill="black" stroke="black" points="86.78,-29.74 95.81,-24.2 85.3,-22.9 86.78,-29.74"/>
</g>
<!-- /Network/SecurityGroups/ALB -->
<g id="node3" class="node">
<title>/Network/SecurityGroups/ALB</title>
<ellipse fill="none" stroke="black" cx="167.55" cy="-90" rx="151.37" ry="18"/>
<text text-anchor="middle" x="167.55" y="-86.3" font-family="Times,serif" font-size="14.00">/Network/SecurityGroups/ALB</text>
</g>
<!-- /Compute/ALB&#45;&gt;/Network/SecurityGroups/ALB -->
<g id="edge2" class="edge">
<title>/Compute/ALB&#45;&gt;/Network/SecurityGroups/ALB</title>
<path fill="none" stroke="black" d="M167.55,-143.7C167.55,-135.98 167.55,-126.71 167.55,-118.11"/>
<polygon fill="black" stroke="black" points="171.05,-118.1 167.55,-108.1 164.05,-118.1 171.05,-118.1"/>
</g>
<!-- /Network/SecurityGroups/ALB&#45;&gt;/Network/VPC -->
<g id="edge7" class="edge">
<title>/Network/SecurityGroups/ALB&#45;&gt;/Network/VPC</title>
<path fill="none" stroke="black" d="M167.55,-71.7C167.55,-63.98 167.55,-54.71 167.55,-46.11"/>
<polygon fill="black" stroke="black" points="171.05,-46.1 167.55,-36.1 164.05,-46.1 171.05,-46.1"/>
</g>
<!-- /Containers/ECSCluster -->
<g id="node4" class="node">
<title>/Containers/ECSCluster</title>
<ellipse fill="none" stroke="black" cx="496.55" cy="-162" rx="121.58" ry="18"/>
<text text-anchor="middle" x="496.55" y="-158.3" font-family="Times,serif" font-size="14.00">/Containers/ECSCluster</text>
</g>
<!-- /Containers/ECSServices/SampleService -->
<g id="node5" class="node">
<title>/Containers/ECSServices/SampleService</title>
<ellipse fill="none" stroke="black" cx="309.55" cy="-234" rx="198.47" ry="18"/>
<text text-anchor="middle" x="309.55" y="-230.3" font-family="Times,serif" font-size="14.00">/Containers/ECSServices/SampleService</text>
</g>
<!-- /Containers/ECSServices/SampleService&#45;&gt;/Compute/ALB -->
<g id="edge4" class="edge">
<title>/Containers/ECSServices/SampleService&#45;&gt;/Compute/ALB</title>
<path fill="none" stroke="black" d="M275.53,-216.23C255.38,-206.3 229.71,-193.64 208.45,-183.16"/>
<polygon fill="black" stroke="black" points="209.85,-179.95 199.34,-178.67 206.76,-186.23 209.85,-179.95"/>
</g>
<!-- /Containers/ECSServices/SampleService&#45;&gt;/Network/VPC -->
<g id="edge6" class="edge">
<title>/Containers/ECSServices/SampleService&#45;&gt;/Network/VPC</title>
<path fill="none" stroke="black" d="M318.4,-215.8C333.36,-184.09 359.08,-115.66 327.55,-72 309.38,-46.85 278.82,-33.44 249.25,-26.36"/>
<polygon fill="black" stroke="black" points="249.79,-22.9 239.28,-24.2 248.31,-29.74 249.79,-22.9"/>
</g>
<!-- /Containers/ECSServices/SampleService&#45;&gt;/Network/SecurityGroups/ALB -->
<g id="edge3" class="edge">
<title>/Containers/ECSServices/SampleService&#45;&gt;/Network/SecurityGroups/ALB</title>
<path fill="none" stroke="black" d="M301.8,-215.99C292.44,-196.79 275.2,-165.46 253.55,-144 241.27,-131.84 225.7,-121.18 211.19,-112.68"/>
<polygon fill="black" stroke="black" points="212.76,-109.55 202.34,-107.67 209.32,-115.64 212.76,-109.55"/>
</g>
<!-- /Containers/ECSServices/SampleService&#45;&gt;/Containers/ECSCluster -->
<g id="edge5" class="edge">
<title>/Containers/ECSServices/SampleService&#45;&gt;/Containers/ECSCluster</title>
<path fill="none" stroke="black" d="M353.86,-216.41C381.03,-206.24 415.95,-193.17 444.44,-182.51"/>
<polygon fill="black" stroke="black" points="445.7,-185.77 453.84,-178.99 443.24,-179.22 445.7,-185.77"/>
</g>
</g>
</svg>
