<?xml version="1.0" encoding="UTF-8" standalone="no"?>
<!DOCTYPE svg PUBLIC "-//W3C//DTD SVG 1.1//EN"
 "http://www.w3.org/Graphics/SVG/1.1/DTD/svg11.dtd">
<!-- Generated by graphviz version 2.43.0 (0)
 -->
<!-- Title: %3 Pages: 1 -->
<svg width="371pt" height="188pt"
 viewBox="0.00 0.00 370.67 188.00" xmlns="http://www.w3.org/2000/svg" xmlns:xlink="http://www.w3.org/1999/xlink">
<g id="graph0" class="graph" transform="scale(1 1) rotate(0) translate(4 184)">
<title>%3</title>
<polygon fill="white" stroke="transparent" points="-4,4 -4,-184 366.67,-184 366.67,4 -4,4"/>
<!-- /SecurityGroups/ALB -->
<g id="node1" class="node">
<title>/SecurityGroups/ALB</title>
<ellipse fill="none" stroke="black" cx="113.33" cy="-90" rx="108.58" ry="18"/>
<text text-anchor="middle" x="113.33" y="-86.3" font-family="Times,serif" font-size="14.00">/SecurityGroups/ALB</text>
</g>
<!-- /VPC -->
<g id="node2" class="node">
<title>/VPC</title>
<ellipse fill="none" stroke="black" cx="181.33" cy="-18" rx="33.29" ry="18"/>
<text text-anchor="middle" x="181.33" y="-14.3" font-family="Times,serif" font-size="14.00">/VPC</text>
</g>
<!-- /SecurityGroups/ALB&#45;&gt;/VPC -->
<g id="edge1" class="edge">
<title>/SecurityGroups/ALB&#45;&gt;/VPC</title>
<path fill="none" stroke="black" d="M129.79,-72.05C138.69,-62.9 149.79,-51.47 159.41,-41.57"/>
<polygon fill="black" stroke="black" points="161.96,-43.97 166.42,-34.36 156.94,-39.09 161.96,-43.97"/>
</g>
<!-- /SecurityGroups/ECS/SampleService -->
<g id="node3" class="node">
<title>/SecurityGroups/ECS/SampleService</title>
<ellipse fill="none" stroke="black" cx="181.33" cy="-162" rx="181.17" ry="18"/>
<text text-anchor="middle" x="181.33" y="-158.3" font-family="Times,serif" font-size="14.00">/SecurityGroups/ECS/SampleService</text>
</g>
<!-- /SecurityGroups/ECS/SampleService&#45;&gt;/SecurityGroups/ALB -->
<g id="edge3" class="edge">
<title>/SecurityGroups/ECS/SampleService&#45;&gt;/SecurityGroups/ALB</title>
<path fill="none" stroke="black" d="M164.87,-144.05C156.56,-135.5 146.32,-124.96 137.17,-115.54"/>
<polygon fill="black" stroke="black" points="139.59,-113.01 130.12,-108.28 134.57,-117.89 139.59,-113.01"/>
</g>
<!-- /SecurityGroups/ECS/SampleService&#45;&gt;/VPC -->
<g id="edge2" class="edge">
<title>/SecurityGroups/ECS/SampleService&#45;&gt;/VPC</title>
<path fill="none" stroke="black" d="M203.93,-143.96C214.39,-134.63 225.73,-122.11 231.33,-108 237.24,-93.13 237.24,-86.87 231.33,-72 226.44,-59.69 217.19,-48.59 207.96,-39.76"/>
<polygon fill="black" stroke="black" points="210.1,-36.97 200.31,-32.9 205.42,-42.19 210.1,-36.97"/>
</g>
</g>
</svg>
