<?xml version="1.0" encoding="UTF-8" standalone="no"?>
<!DOCTYPE svg PUBLIC "-//W3C//DTD SVG 1.1//EN"
 "http://www.w3.org/Graphics/SVG/1.1/DTD/svg11.dtd">
<!-- Generated by graphviz version 2.43.0 (0)
 -->
<!-- Title: %3 Pages: 1 -->
<svg width="1257pt" height="260pt"
 viewBox="0.00 0.00 1257.39 260.00" xmlns="http://www.w3.org/2000/svg" xmlns:xlink="http://www.w3.org/1999/xlink">
<g id="graph0" class="graph" transform="scale(1 1) rotate(0) translate(4 256)">
<title>%3</title>
<polygon fill="white" stroke="transparent" points="-4,4 -4,-256 1253.39,-256 1253.39,4 -4,4"/>
<!-- Compute/ALB -->
<g id="node1" class="node">
<title>Compute/ALB</title>
<ellipse fill="none" stroke="black" cx="349.9" cy="-162" rx="74.99" ry="18"/>
<text text-anchor="middle" x="349.9" y="-158.3" font-family="Times,serif" font-size="14.00">Compute/ALB</text>
</g>
<!-- Network/VPC -->
<g id="node2" class="node">
<title>Network/VPC</title>
<ellipse fill="none" stroke="black" cx="525.9" cy="-18" rx="73.39" ry="18"/>
<text text-anchor="middle" x="525.9" y="-14.3" font-family="Times,serif" font-size="14.00">Network/VPC</text>
</g>
<!-- Compute/ALB&#45;&gt;Network/VPC -->
<g id="edge1" class="edge">
<title>Compute/ALB&#45;&gt;Network/VPC</title>
<path fill="none" stroke="black" d="M348.84,-143.71C348.58,-123.95 351.25,-91.82 368.9,-72 389.62,-48.75 420.89,-35.68 450.09,-28.35"/>
<polygon fill="black" stroke="black" points="450.94,-31.74 459.89,-26.07 449.36,-24.92 450.94,-31.74"/>
</g>
<!-- Network/SecurityGroups/ALB -->
<g id="node3" class="node">
<title>Network/SecurityGroups/ALB</title>
<ellipse fill="none" stroke="black" cx="525.9" cy="-90" rx="148.37" ry="18"/>
<text text-anchor="middle" x="525.9" y="-86.3" font-family="Times,serif" font-size="14.00">Network/SecurityGroups/ALB</text>
</g>
<!-- Compute/ALB&#45;&gt;Network/SecurityGroups/ALB -->
<g id="edge2" class="edge">
<title>Compute/ALB&#45;&gt;Network/SecurityGroups/ALB</title>
<path fill="none" stroke="black" d="M386.8,-146.33C412.52,-136.1 447.15,-122.32 475.42,-111.08"/>
<polygon fill="black" stroke="black" points="476.75,-114.32 484.75,-107.37 474.16,-107.81 476.75,-114.32"/>
</g>
<!-- Network/SecurityGroups/ALB&#45;&gt;Network/VPC -->
<g id="edge7" class="edge">
<title>Network/SecurityGroups/ALB&#45;&gt;Network/VPC</title>
<path fill="none" stroke="black" d="M525.9,-71.7C525.9,-63.98 525.9,-54.71 525.9,-46.11"/>
<polygon fill="black" stroke="black" points="529.4,-46.1 525.9,-36.1 522.4,-46.1 529.4,-46.1"/>
</g>
<!-- Containers/ECSCluster -->
<g id="node4" class="node">
<title>Containers/ECSCluster</title>
<ellipse fill="none" stroke="black" cx="138.9" cy="-162" rx="118.08" ry="18"/>
<text text-anchor="middle" x="138.9" y="-158.3" font-family="Times,serif" font-size="14.00">Containers/ECSCluster</text>
</g>
<!-- Containers/ECSServices/SampleService -->
<g id="node5" class="node">
<title>Containers/ECSServices/SampleService</title>
<ellipse fill="none" stroke="black" cx="283.9" cy="-234" rx="195.77" ry="18"/>
<text text-anchor="middle" x="283.9" y="-230.3" font-family="Times,serif" font-size="14.00">Containers/ECSServices/SampleService</text>
</g>
<!-- Containers/ECSServices/SampleService&#45;&gt;Compute/ALB -->
<g id="edge4" class="edge">
<title>Containers/ECSServices/SampleService&#45;&gt;Compute/ALB</title>
<path fill="none" stroke="black" d="M299.88,-216.05C308.07,-207.37 318.18,-196.64 327.17,-187.11"/>
<polygon fill="black" stroke="black" points="329.76,-189.47 334.07,-179.79 324.67,-184.66 329.76,-189.47"/>
</g>
<!-- Containers/ECSServices/SampleService&#45;&gt;Network/VPC -->
<g id="edge6" class="edge">
<title>Containers/ECSServices/SampleService&#45;&gt;Network/VPC</title>
<path fill="none" stroke="black" d="M112.52,-225.23C37.22,-215.1 -26.4,-192.73 11.9,-144 65.29,-76.07 317.86,-40.47 447.98,-26.37"/>
<polygon fill="black" stroke="black" points="448.71,-29.81 458.28,-25.27 447.96,-22.85 448.71,-29.81"/>
</g>
<!-- Containers/ECSServices/SampleService&#45;&gt;Network/SecurityGroups/ALB -->
<g id="edge3" class="edge">
<title>Containers/ECSServices/SampleService&#45;&gt;Network/SecurityGroups/ALB</title>
<path fill="none" stroke="black" d="M348.3,-216.9C375.89,-208.35 407.72,-196.21 433.9,-180 435.87,-178.78 474.22,-141.48 500.78,-115.55"/>
<polygon fill="black" stroke="black" points="503.54,-117.75 508.25,-108.26 498.65,-112.74 503.54,-117.75"/>
</g>
<!-- Containers/ECSServices/SampleService&#45;&gt;Containers/ECSCluster -->
<g id="edge5" class="edge">
<title>Containers/ECSServices/SampleService&#45;&gt;Containers/ECSCluster</title>
<path fill="none" stroke="black" d="M249.17,-216.23C229.03,-206.51 203.49,-194.18 182.06,-183.84"/>
<polygon fill="black" stroke="black" points="183.38,-180.58 172.85,-179.39 180.33,-186.89 183.38,-180.58"/>
</g>
<!-- Network/SecurityGroups/ECS/SampleService -->
<g id="node6" class="node">
<title>Network/SecurityGroups/ECS/SampleService</title>
<ellipse fill="none" stroke="black" cx="702.9" cy="-162" rx="221.76" ry="18"/>
<text text-anchor="middle" x="702.9" y="-158.3" font-family="Times,serif" font-size="14.00">Network/SecurityGroups/ECS/SampleService</text>
</g>
<!-- Network/SecurityGroups/ECS/SampleService&#45;&gt;Network/VPC -->
<g id="edge8" class="edge">
<title>Network/SecurityGroups/ECS/SampleService&#45;&gt;Network/VPC</title>
<path fill="none" stroke="black" d="M703.75,-143.69C703.76,-123.92 700.71,-91.77 682.9,-72 662.06,-48.86 630.77,-35.81 601.59,-28.46"/>
<polygon fill="black" stroke="black" points="602.33,-25.04 591.8,-26.18 600.74,-31.85 602.33,-25.04"/>
</g>
<!-- Network/SecurityGroups/ECS/SampleService&#45;&gt;Network/SecurityGroups/ALB -->
<g id="edge9" class="edge">
<title>Network/SecurityGroups/ECS/SampleService&#45;&gt;Network/SecurityGroups/ALB</title>
<path fill="none" stroke="black" d="M660.51,-144.23C635.37,-134.29 603.34,-121.63 576.84,-111.14"/>
<polygon fill="black" stroke="black" points="577.93,-107.81 567.34,-107.39 575.35,-114.32 577.93,-107.81"/>
</g>
<!-- Network/SecurityGroups/RDSPostgres -->
<g id="node7" class="node">
<title>Network/SecurityGroups/RDSPostgres</title>
<ellipse fill="none" stroke="black" cx="767.9" cy="-234" rx="190.37" ry="18"/>
<text text-anchor="middle" x="767.9" y="-230.3" font-family="Times,serif" font-size="14.00">Network/SecurityGroups/RDSPostgres</text>
</g>
<!-- Network/SecurityGroups/RDSPostgres&#45;&gt;Network/VPC -->
<g id="edge10" class="edge">
<title>Network/SecurityGroups/RDSPostgres&#45;&gt;Network/VPC</title>
<path fill="none" stroke="black" d="M854.24,-217.91C907.66,-204.58 961.26,-181.32 933.9,-144 893.71,-89.15 701.35,-48.69 595.74,-30.18"/>
<polygon fill="black" stroke="black" points="596.24,-26.72 585.79,-28.46 595.05,-33.62 596.24,-26.72"/>
</g>
<!-- Network/SecurityGroups/RDSPostgres&#45;&gt;Network/SecurityGroups/ECS/SampleService -->
<g id="edge11" class="edge">
<title>Network/SecurityGroups/RDSPostgres&#45;&gt;Network/SecurityGroups/ECS/SampleService</title>
<path fill="none" stroke="black" d="M752.17,-216.05C744.3,-207.58 734.63,-197.17 725.95,-187.82"/>
<polygon fill="black" stroke="black" points="728.31,-185.22 718.94,-180.28 723.18,-189.98 728.31,-185.22"/>
</g>
<!-- Operations/ResourceGroup -->
<g id="node8" class="node">
<title>Operations/ResourceGroup</title>
<ellipse fill="none" stroke="black" cx="1112.9" cy="-234" rx="136.48" ry="18"/>
<text text-anchor="middle" x="1112.9" y="-230.3" font-family="Times,serif" font-size="14.00">Operations/ResourceGroup</text>
</g>
</g>
</svg>
