<?xml version="1.0" encoding="UTF-8" standalone="no"?>
<!DOCTYPE svg PUBLIC "-//W3C//DTD SVG 1.1//EN"
 "http://www.w3.org/Graphics/SVG/1.1/DTD/svg11.dtd">
<!-- Generated by graphviz version 2.43.0 (0)
 -->
<!-- Title: %3 Pages: 1 -->
<svg width="497pt" height="188pt"
 viewBox="0.00 0.00 497.27 188.00" xmlns="http://www.w3.org/2000/svg" xmlns:xlink="http://www.w3.org/1999/xlink">
<g id="graph0" class="graph" transform="scale(1 1) rotate(0) translate(4 184)">
<title>%3</title>
<polygon fill="white" stroke="transparent" points="-4,4 -4,-184 493.27,-184 493.27,4 -4,4"/>
<!-- /infrastructure/Compute/ALB -->
<g id="node1" class="node">
<title>/infrastructure/Compute/ALB</title>
<ellipse fill="none" stroke="black" cx="145.59" cy="-162" rx="145.67" ry="18"/>
<text text-anchor="middle" x="145.59" y="-158.3" font-family="Times,serif" font-size="14.00">/infrastructure/Compute/ALB</text>
</g>
<!-- /infrastructure/Network/VPC -->
<g id="node2" class="node">
<title>/infrastructure/Network/VPC</title>
<ellipse fill="none" stroke="black" cx="145.59" cy="-18" rx="144.07" ry="18"/>
<text text-anchor="middle" x="145.59" y="-14.3" font-family="Times,serif" font-size="14.00">/infrastructure/Network/VPC</text>
</g>
<!-- /infrastructure/Compute/ALB&#45;&gt;/infrastructure/Network/VPC -->
<g id="edge1" class="edge">
<title>/infrastructure/Compute/ALB&#45;&gt;/infrastructure/Network/VPC</title>
<path fill="none" stroke="black" d="M88.33,-145.44C69.84,-137.4 51.34,-125.48 40.59,-108 32.2,-94.37 32.2,-85.63 40.59,-72 49.58,-57.39 63.98,-46.66 79.26,-38.84"/>
<polygon fill="black" stroke="black" points="80.78,-41.99 88.33,-34.56 77.8,-35.66 80.78,-41.99"/>
</g>
<!-- /infrastructure/Network/SecurityGroups/ALB -->
<g id="node3" class="node">
<title>/infrastructure/Network/SecurityGroups/ALB</title>
<ellipse fill="none" stroke="black" cx="269.59" cy="-90" rx="219.86" ry="18"/>
<text text-anchor="middle" x="269.59" y="-86.3" font-family="Times,serif" font-size="14.00">/infrastructure/Network/SecurityGroups/ALB</text>
</g>
<!-- /infrastructure/Compute/ALB&#45;&gt;/infrastructure/Network/SecurityGroups/ALB -->
<g id="edge2" class="edge">
<title>/infrastructure/Compute/ALB&#45;&gt;/infrastructure/Network/SecurityGroups/ALB</title>
<path fill="none" stroke="black" d="M175.29,-144.23C191.88,-134.86 212.76,-123.08 230.65,-112.98"/>
<polygon fill="black" stroke="black" points="232.71,-115.84 239.7,-107.87 229.27,-109.74 232.71,-115.84"/>
</g>
<!-- /infrastructure/Network/SecurityGroups/ALB&#45;&gt;/infrastructure/Network/VPC -->
<g id="edge3" class="edge">
<title>/infrastructure/Network/SecurityGroups/ALB&#45;&gt;/infrastructure/Network/VPC</title>
<path fill="none" stroke="black" d="M239.57,-72.05C222.97,-62.68 202.15,-50.93 184.33,-40.87"/>
<polygon fill="black" stroke="black" points="185.76,-37.66 175.33,-35.79 182.32,-43.75 185.76,-37.66"/>
</g>
</g>
</svg>
